<svg width="16" height="16" viewBox="0 0 16 16" fill="none" xmlns="http://www.w3.org/2000/svg">
<path d="M5.00049 10.0905H6.27322C6.27322 10.7777 7.14503 11.3632 8.18231 11.3632C9.21958 11.3632 10.0914 10.7777 10.0914 10.0905C10.0914 9.39047 9.42958 9.13592 8.02958 8.79865C6.68049 8.46137 5.00049 8.04137 5.00049 6.27228C5.00049 5.13319 5.93594 4.16592 7.22776 3.84137V2.4541H9.13685V3.84137C10.4287 4.16592 11.3641 5.13319 11.3641 6.27228H10.0914C10.0914 5.58501 9.21958 4.99956 8.18231 4.99956C7.14503 4.99956 6.27322 5.58501 6.27322 6.27228C6.27322 6.97228 6.93503 7.22683 8.33503 7.5641C9.68412 7.90137 11.3641 8.32137 11.3641 10.0905C11.3641 11.2296 10.4287 12.1968 9.13685 12.5214V13.9086H7.22776V12.5214C5.93594 12.1968 5.00049 11.2296 5.00049 10.0905Z" fill="#1252AE"/>
</svg>
