<svg width="16" height="16" viewBox="0 0 16 16" fill="none" xmlns="http://www.w3.org/2000/svg">
<g clip-path="url(#clip0_1_1086)">
<path d="M7.90878 3.09011C9.30878 3.09011 10.4542 4.23556 10.4542 5.63556C10.4542 6.97193 9.11787 9.13556 7.90878 10.6628C6.69969 9.07193 5.36333 6.97193 5.36333 5.63556C5.36333 4.23556 6.50878 3.09011 7.90878 3.09011ZM7.90878 1.81738C5.80878 1.81738 4.0906 3.53556 4.0906 5.63556C4.0906 8.4992 7.90878 12.6356 7.90878 12.6356C7.90878 12.6356 11.727 8.43556 11.727 5.63556C11.727 3.53556 10.0088 1.81738 7.90878 1.81738ZM7.90878 4.36284C7.20878 4.36284 6.63605 4.93556 6.63605 5.63556C6.63605 6.33556 7.20878 6.90829 7.90878 6.90829C8.60878 6.90829 9.18151 6.33556 9.18151 5.63556C9.18151 4.93556 8.60878 4.36284 7.90878 4.36284ZM12.9997 12.6356C12.9997 14.0356 10.7088 15.181 7.90878 15.181C5.10878 15.181 2.81787 14.0356 2.81787 12.6356C2.81787 11.8083 3.58151 11.1083 4.7906 10.5992L5.17242 11.1719C4.53605 11.4901 4.0906 11.8719 4.0906 12.3174C4.0906 13.2083 5.80878 13.9083 7.90878 13.9083C10.0088 13.9083 11.727 13.2083 11.727 12.3174C11.727 11.8719 11.2815 11.4901 10.5815 11.1719L10.9633 10.5992C12.2361 11.1083 12.9997 11.8083 12.9997 12.6356Z" fill="#1252AE"/>
</g>
<defs>
<clipPath id="clip0_1_1086">
<rect width="15.2727" height="15.2727" fill="white" transform="translate(0.272461 0.544922)"/>
</clipPath>
</defs>
</svg>
