<svg width="145" height="143" viewBox="0 0 145 143" fill="none" xmlns="http://www.w3.org/2000/svg">
<path d="M36.3372 121.063C36.3428 121.422 36.3023 121.78 36.2168 122.129C36.1497 122.411 36.0184 122.673 35.833 122.896C35.6454 123.107 35.4073 123.267 35.1408 123.361C34.8113 123.473 34.4645 123.526 34.1165 123.518C33.7809 123.524 33.446 123.487 33.12 123.407C32.8579 123.343 32.6151 123.217 32.4119 123.04C32.2132 122.857 32.0666 122.626 31.9871 122.368C31.8889 122.037 31.8443 121.692 31.8548 121.346V119.321C31.8548 118.94 31.8455 118.651 31.8296 118.447C31.8262 118.282 31.7701 118.124 31.6695 117.994C31.6021 117.925 31.5146 117.879 31.4194 117.862C31.2808 117.835 31.1397 117.823 30.9985 117.826V117.538H33.6282V117.83C33.4864 117.827 33.3446 117.837 33.2047 117.86C33.1031 117.877 33.012 117.932 32.9506 118.015C32.8682 118.147 32.8226 118.299 32.8182 118.454C32.7984 118.656 32.7865 118.946 32.7865 119.326V121.414C32.7838 121.648 32.8109 121.881 32.8672 122.109C32.9152 122.298 33.0057 122.473 33.1319 122.623C33.2634 122.767 33.4296 122.877 33.6149 122.941C33.85 123.018 34.0967 123.054 34.3441 123.047C34.8563 123.047 35.244 122.907 35.4995 122.623C35.7549 122.338 35.8859 121.919 35.8859 121.367V119.513C35.8917 119.167 35.874 118.822 35.833 118.478C35.8179 118.295 35.7478 118.121 35.6318 117.979C35.5586 117.91 35.4665 117.864 35.3671 117.847C35.2356 117.829 35.1029 117.821 34.9701 117.822V117.538H37.2067V117.83C37.0707 117.827 36.9348 117.84 36.8017 117.867C36.6991 117.89 36.6093 117.952 36.5502 118.038C36.4582 118.19 36.4054 118.362 36.3967 118.539C36.3672 118.864 36.3544 119.191 36.3584 119.517L36.3372 121.063Z" fill="#1252AE"/>
<path d="M46.5034 121.99C46.5004 122.194 46.511 122.397 46.5352 122.599C46.5485 122.719 46.5888 122.835 46.653 122.937C46.715 123.02 46.8054 123.078 46.9071 123.099C47.0513 123.128 47.198 123.144 47.3451 123.145V123.438H44.8452V123.145C44.9922 123.144 45.1386 123.126 45.2819 123.094C45.3829 123.072 45.4734 123.017 45.5387 122.937C45.6087 122.842 45.6517 122.73 45.6631 122.612C45.6866 122.422 45.6968 122.231 45.6935 122.04V118.93C45.6956 118.752 45.6863 118.574 45.6657 118.396C45.6563 118.278 45.6201 118.164 45.5599 118.062C45.5039 117.978 45.42 117.917 45.323 117.889C45.194 117.851 45.0605 117.829 44.9259 117.825V117.538H47.2684V117.83C47.1337 117.83 46.9998 117.851 46.8714 117.891C46.7764 117.921 46.6946 117.982 46.6398 118.065C46.5777 118.171 46.5406 118.29 46.5312 118.412C46.51 118.601 46.5007 118.79 46.5034 118.98V121.99Z" fill="#1252AE"/>
<path d="M59.7679 123.443H54.7866V123.151C54.9329 123.149 55.0786 123.133 55.222 123.105C55.3215 123.088 55.4137 123.042 55.4867 122.973C55.5541 122.9 55.5971 122.808 55.6098 122.709C55.6329 122.565 55.6431 122.419 55.6402 122.272V118.699C55.6432 118.554 55.6348 118.409 55.6151 118.265C55.6025 118.169 55.5646 118.078 55.5052 118.001C55.4446 117.931 55.3612 117.885 55.2697 117.87C55.1389 117.843 55.0061 117.826 54.8726 117.821V117.538H57.2177V117.83C57.0841 117.831 56.9509 117.846 56.8207 117.876C56.7303 117.896 56.6489 117.944 56.5891 118.015C56.5299 118.096 56.4925 118.191 56.4806 118.291C56.4608 118.446 56.4524 118.602 56.4554 118.757V122.064C56.4503 122.242 56.4722 122.42 56.5203 122.591C56.558 122.718 56.6372 122.829 56.7453 122.906C56.8712 122.987 57.0143 123.039 57.1635 123.057C57.3826 123.089 57.6038 123.104 57.8252 123.102C58.0728 123.105 58.3202 123.087 58.565 123.051C58.7441 123.025 58.9163 122.965 59.0718 122.873C59.2101 122.787 59.3223 122.666 59.3961 122.521C59.487 122.334 59.5554 122.138 59.5999 121.935H59.8871L59.7679 123.443Z" fill="#1252AE"/>
<path d="M84.7915 122.028C84.7882 122.232 84.7984 122.435 84.822 122.637C84.8335 122.759 84.8748 122.877 84.9424 122.981C85.0036 123.064 85.0943 123.122 85.1965 123.143C85.3399 123.171 85.4856 123.187 85.6319 123.189V123.481H83.1333V123.189C83.2799 123.187 83.4258 123.17 83.5687 123.137C83.672 123.116 83.7652 123.061 83.8334 122.981C83.9035 122.885 83.9456 122.772 83.9551 122.654C83.9792 122.465 83.9898 122.274 83.9869 122.084V118.968C83.9893 118.789 83.9805 118.611 83.9604 118.433C83.95 118.315 83.9129 118.201 83.8519 118.1C83.7971 118.016 83.714 117.955 83.6177 117.927C83.4886 117.889 83.3552 117.868 83.2207 117.863V117.571H85.5618V117.863C85.4271 117.863 85.2933 117.884 85.1647 117.923C85.0699 117.956 84.9888 118.02 84.9345 118.104C84.8733 118.21 84.8366 118.329 84.8273 118.452C84.8067 118.641 84.7974 118.83 84.7995 119.021L84.7915 122.028Z" fill="#1252AE"/>
<path d="M97.7488 123.518L94.0856 118.714H94.0552V121.99C94.0522 122.194 94.061 122.397 94.0816 122.599C94.0921 122.72 94.1292 122.837 94.1901 122.943C94.2429 123.024 94.3254 123.082 94.4204 123.105C94.5508 123.133 94.6839 123.149 94.8174 123.151V123.443H92.7437V123.151C92.8898 123.149 93.0353 123.132 93.1777 123.099C93.2812 123.078 93.3745 123.023 93.4424 122.943C93.5115 122.847 93.5535 122.735 93.5642 122.617C93.5888 122.428 93.5999 122.237 93.5972 122.046V118.93C93.5993 118.752 93.59 118.574 93.5695 118.396C93.5593 118.278 93.5221 118.164 93.4609 118.062C93.4055 117.978 93.322 117.917 93.2254 117.889C93.0964 117.851 92.9629 117.829 92.8284 117.825V117.538H94.3556L97.7263 122.015H97.7567V118.986C97.7591 118.785 97.7498 118.584 97.7289 118.383C97.7214 118.261 97.6852 118.143 97.6231 118.037C97.5696 117.955 97.4867 117.897 97.3915 117.875C97.2613 117.845 97.1281 117.829 96.9945 117.829V117.538H99.0603V117.83C98.9134 117.831 98.767 117.848 98.6236 117.879C98.5219 117.901 98.4311 117.957 98.3668 118.038C98.2939 118.134 98.2481 118.247 98.2345 118.366C98.2118 118.555 98.2017 118.745 98.2041 118.935V123.523L97.7488 123.518Z" fill="#1252AE"/>
<path d="M111.284 123.518C110.88 123.524 110.48 123.454 110.103 123.311C109.764 123.181 109.457 122.979 109.206 122.717C108.954 122.456 108.763 122.143 108.647 121.8C108.511 121.41 108.444 120.999 108.45 120.587C108.445 120.153 108.518 119.722 108.666 119.315C108.799 118.947 109.005 118.61 109.271 118.323C109.532 118.045 109.851 117.827 110.205 117.683C110.585 117.528 110.993 117.451 111.404 117.458C111.7 117.456 111.994 117.5 112.276 117.589C112.587 117.694 112.885 117.836 113.161 118.012L113.323 117.535H113.588L113.487 119.301H113.118C113.123 119.077 113.074 118.854 112.975 118.652C112.885 118.476 112.756 118.323 112.599 118.203C112.441 118.082 112.262 117.992 112.07 117.94C111.873 117.883 111.668 117.855 111.463 117.855C111.173 117.851 110.886 117.914 110.624 118.04C110.376 118.162 110.161 118.343 109.998 118.566C109.817 118.821 109.685 119.108 109.609 119.411C109.516 119.779 109.471 120.158 109.477 120.538C109.477 121.362 109.649 121.995 109.992 122.437C110.335 122.879 110.834 123.098 111.489 123.095C111.712 123.098 111.935 123.068 112.15 123.007C112.329 122.957 112.497 122.876 112.648 122.769C112.776 122.679 112.881 122.561 112.956 122.424C113.024 122.298 113.059 122.157 113.06 122.014C113.06 121.717 113 121.516 112.88 121.411C112.759 121.306 112.562 121.254 112.289 121.254V120.962H114.48V121.254C114.376 121.252 114.272 121.262 114.171 121.285C114.096 121.301 114.028 121.339 113.975 121.394C113.923 121.459 113.891 121.538 113.883 121.62C113.863 121.729 113.855 121.839 113.858 121.95V122.806C113.758 122.806 113.67 122.806 113.593 122.818C113.508 122.826 113.424 122.843 113.343 122.869C113.244 122.902 113.148 122.94 113.054 122.985C112.948 123.034 112.825 123.099 112.68 123.181C112.485 123.289 112.277 123.372 112.06 123.427C111.81 123.49 111.552 123.521 111.293 123.518H111.284Z" fill="#1252AE"/>
<path d="M122.914 121.638H123.198C123.229 121.856 123.299 122.066 123.403 122.259C123.498 122.438 123.626 122.598 123.78 122.729C123.937 122.858 124.117 122.958 124.31 123.024C124.517 123.094 124.734 123.129 124.953 123.127C125.275 123.146 125.594 123.053 125.854 122.863C125.963 122.776 126.05 122.665 126.108 122.538C126.166 122.411 126.194 122.273 126.188 122.134C126.188 122.013 126.165 121.894 126.12 121.782C126.071 121.664 125.996 121.558 125.901 121.471C125.776 121.356 125.638 121.257 125.489 121.176C125.278 121.059 125.06 120.953 124.836 120.86C124.561 120.746 124.293 120.614 124.035 120.465C123.845 120.358 123.671 120.225 123.518 120.07C123.396 119.944 123.303 119.794 123.246 119.629C123.189 119.456 123.161 119.276 123.165 119.094C123.164 118.871 123.209 118.649 123.297 118.444C123.378 118.247 123.5 118.07 123.655 117.925C123.813 117.777 123.998 117.663 124.201 117.588C124.424 117.507 124.66 117.467 124.897 117.47C125.112 117.468 125.326 117.504 125.529 117.576C125.744 117.658 125.945 117.775 126.123 117.921L126.321 117.576H126.5L126.586 119.103H126.299C126.215 118.748 126.031 118.423 125.769 118.167C125.537 117.963 125.235 117.854 124.925 117.862C124.656 117.846 124.39 117.928 124.176 118.092C124.085 118.167 124.012 118.262 123.964 118.37C123.916 118.477 123.894 118.595 123.9 118.712C123.898 118.827 123.919 118.94 123.962 119.047C124.007 119.154 124.075 119.25 124.16 119.329C124.271 119.43 124.392 119.518 124.523 119.592C124.703 119.696 124.888 119.789 125.079 119.872C125.403 120.012 125.719 120.17 126.026 120.345C126.245 120.465 126.448 120.612 126.63 120.782C126.767 120.911 126.875 121.068 126.945 121.242C127.009 121.415 127.04 121.599 127.037 121.783C127.04 122.027 126.988 122.268 126.885 122.489C126.782 122.702 126.634 122.89 126.452 123.042C126.256 123.201 126.032 123.322 125.791 123.398C125.517 123.487 125.23 123.532 124.942 123.53C124.673 123.533 124.404 123.493 124.148 123.408C123.889 123.311 123.649 123.171 123.436 122.994L123.221 123.369H123.043L122.914 121.638Z" fill="#1252AE"/>
<path d="M27.9376 91.4993V91.7811L28.4987 91.9905C28.9264 92.1602 29.2927 92.4544 29.5498 92.8345C29.8069 93.2146 29.9429 93.6631 29.9399 94.1213V106.427C29.9408 107.157 29.7969 107.881 29.5164 108.556C29.2359 109.23 28.8244 109.844 28.3053 110.36C27.7863 110.877 27.17 111.286 26.4917 111.565C25.8134 111.844 25.0865 111.988 24.3525 111.987H22.7379C19.6808 111.987 18.3111 109.503 18.3111 106.464V94.1555C18.3084 93.6976 18.4443 93.2494 18.7011 92.8693C18.9579 92.4893 19.3237 92.195 19.751 92.0247L20.3121 91.8153V91.5348H13.2173V91.8153L13.7797 92.0247C14.2072 92.1947 14.5732 92.4889 14.8301 92.869C15.0869 93.2492 15.2227 93.6975 15.2196 94.1555V106.464C15.2214 108.345 15.9736 110.149 17.3111 111.48C18.6485 112.81 20.4619 113.557 22.3528 113.558H24.3895C26.2801 113.557 28.093 112.809 29.43 111.479C30.7669 110.149 31.5187 108.345 31.5201 106.464V94.1555C31.517 93.6975 31.6528 93.2492 31.9096 92.869C32.1665 92.4889 32.5325 92.1947 32.96 92.0247L33.5224 91.8153V91.5348L27.9376 91.4993Z" fill="#1252AE"/>
<path d="M56.1821 91.9539L56.7446 91.7445V91.4626H51.1942V91.7405L51.7553 91.9499C52.1831 92.1203 52.5494 92.415 52.8064 92.7955C53.0635 93.176 53.1994 93.6248 53.1965 94.0834V107.477L41.6722 91.5351H36.0874V91.8156L36.6485 92.025C37.0761 92.1949 37.4423 92.4891 37.6994 92.8692C37.9565 93.2493 38.0925 93.6976 38.0897 94.1558V110.203C38.0928 110.661 37.9569 111.11 37.6998 111.491C37.4428 111.872 37.0764 112.167 36.6485 112.337L36.0874 112.545V112.825H41.6378V112.545L41.0753 112.337C40.6484 112.166 40.2832 111.871 40.0271 111.49C39.7711 111.109 39.636 110.661 39.6394 110.203V93.9833L53.1965 112.755H56.7446V112.474L56.1821 112.27C55.7543 112.101 55.3879 111.806 55.1308 111.426C54.8736 111.046 54.7378 110.598 54.7409 110.139V94.0873C54.738 93.6288 54.8739 93.18 55.1309 92.7995C55.388 92.4189 55.7543 92.1242 56.1821 91.9539Z" fill="#1252AE"/>
<path d="M66.7914 91.9539L67.3539 91.7445V91.4626H60.2564V91.7405L60.8175 91.9499C61.2455 92.12 61.612 92.4146 61.8692 92.7952C62.1263 93.1758 62.262 93.6247 62.2587 94.0834V110.134C62.2628 110.594 62.1269 111.044 61.869 111.425C61.611 111.806 61.2431 112.101 60.8136 112.27L60.2524 112.48V112.76H67.3499V112.48L66.7914 112.27C66.3638 112.101 65.9975 111.806 65.7406 111.426C65.4837 111.046 65.3481 110.598 65.3515 110.139V94.0873C65.3483 93.6289 65.484 93.1801 65.7408 92.7996C65.9977 92.419 66.3638 92.1243 66.7914 91.9539Z" fill="#1252AE"/>
<path d="M90.0134 91.4993H71.4631L70.8716 95.6239L71.1521 95.6608L72.8038 93.8079C73.0131 93.5673 73.2718 93.3741 73.5623 93.2412C73.8529 93.1083 74.1687 93.0389 74.4885 93.0374H79.1985V110.134C79.2024 110.593 79.0664 111.043 78.8085 111.425C78.5506 111.806 78.1827 112.101 77.7533 112.27L77.1909 112.479V112.76H84.2857V112.479L83.7246 112.27C83.2973 112.1 82.9314 111.806 82.6748 111.426C82.4182 111.045 82.2827 110.597 82.286 110.139V93.0427H86.9921C87.3121 93.0438 87.6282 93.1131 87.919 93.246C88.2099 93.3789 88.4687 93.5723 88.6781 93.8131L90.3257 95.6608L90.609 95.6239L90.0134 91.4993Z" fill="#1252AE"/>
<path d="M109.756 108.526L108.104 110.378C107.895 110.618 107.636 110.81 107.345 110.943C107.055 111.075 106.739 111.145 106.42 111.147H99.2151V102.268H102.414C102.874 102.265 103.324 102.4 103.706 102.655C104.088 102.91 104.384 103.274 104.555 103.699L104.592 103.736H104.871V99.2324H104.592L104.555 99.2667C104.385 99.6924 104.089 100.057 103.707 100.313C103.325 100.569 102.874 100.704 102.414 100.701H99.2151V92.9691H105.117C105.437 92.9703 105.753 93.0394 106.044 93.1718C106.335 93.3042 106.595 93.4969 106.805 93.7369L108.456 95.5898L108.737 95.5556L108.14 91.4309H94.1226V91.7101L94.685 91.9195C95.1126 92.0897 95.4786 92.3842 95.7355 92.7645C95.9923 93.1448 96.128 93.5934 96.1249 94.0516V110.097C96.1283 110.556 95.9927 111.004 95.7359 111.385C95.479 111.766 95.1128 112.06 94.685 112.231L94.1226 112.44V112.72H109.405L110.035 108.595L109.756 108.526Z" fill="#1252AE"/>
<path d="M60.1799 17.4731H56.3618V24.736H60.1799V17.4731Z" fill="#1252AE"/>
<path d="M60.1799 17.4731H56.3618V24.736H60.1799V17.4731Z" fill="#1252AE"/>
<path fill-rule="evenodd" clip-rule="evenodd" d="M83.0591 44.0397C85.2493 43.8579 86.5886 43.6169 88.1675 43.0112V17.4731H83.0591V44.0397Z" fill="#1252AE"/>
<path d="M74.2025 119.366C74.0489 119.003 73.8239 118.674 73.5408 118.399C73.2458 118.124 72.9002 117.908 72.5231 117.763C72.1126 117.607 71.6762 117.529 71.2368 117.534H68.5304V117.825C68.6638 117.831 68.7965 117.848 68.9274 117.874C69.0185 117.889 69.1014 117.936 69.1617 118.006C69.2209 118.082 69.2584 118.173 69.2702 118.269C69.2898 118.413 69.2986 118.558 69.2966 118.704V122.279C69.2998 122.427 69.2878 122.575 69.2609 122.72C69.2457 122.82 69.1994 122.912 69.1286 122.984C69.049 123.054 68.9506 123.1 68.8454 123.115C68.6888 123.142 68.5304 123.155 68.3716 123.156V123.45H71.3876C71.8082 123.453 72.226 123.382 72.6211 123.238C72.9794 123.108 73.3083 122.908 73.5885 122.65C73.8603 122.398 74.0746 122.09 74.2171 121.748C74.3692 121.382 74.4457 120.989 74.4421 120.593C74.4459 120.172 74.3645 119.755 74.2025 119.366ZM72.8699 122.441C72.4927 122.86 71.9541 123.067 71.2474 123.067C70.4811 123.067 70.0986 122.777 70.0986 122.192V118.041C70.096 118.023 70.0975 118.005 70.1032 117.988C70.1089 117.971 70.1186 117.955 70.1315 117.942C70.1443 117.929 70.16 117.92 70.1773 117.914C70.1946 117.908 70.213 117.907 70.231 117.909H71.2116C71.5299 117.905 71.8455 117.968 72.138 118.093C72.4072 118.214 72.6455 118.394 72.8355 118.619C73.0376 118.869 73.1883 119.156 73.2788 119.463C73.3864 119.833 73.4386 120.216 73.4336 120.6C73.4323 121.411 73.2431 122.025 72.8699 122.441Z" fill="#1252AE"/>
<path d="M123.07 91.6059V91.4993H113.549V91.7811L114.112 91.9905C114.539 92.1602 114.906 92.4544 115.163 92.8345C115.42 93.2146 115.556 93.6631 115.553 94.1213V110.163C115.556 110.621 115.42 111.07 115.163 111.45C114.906 111.83 114.54 112.124 114.112 112.294L113.549 112.506V112.797H123.07C130.414 112.797 133.502 108.148 133.502 102.203C133.502 96.289 130.414 91.6059 123.07 91.6059ZM123.07 111.322V111.286H118.647V93.1428H123.073C127.955 93.1428 130.416 96.4641 130.416 102.23C130.416 107.995 127.952 111.322 123.07 111.322Z" fill="#1252AE"/>
<path d="M21.5934 120.698C21.5178 120.65 21.4396 120.606 21.3592 120.567C21.2747 120.523 21.186 120.488 21.0945 120.463C20.9904 120.432 20.8848 120.407 20.7782 120.387C20.6604 120.368 20.5215 120.349 20.3626 120.336V120.302C20.8245 120.17 21.1567 119.991 21.3764 119.775C21.4831 119.666 21.5664 119.536 21.6212 119.394C21.6761 119.252 21.7013 119.1 21.6953 118.948C21.701 118.74 21.6504 118.533 21.5487 118.351C21.4469 118.169 21.2978 118.017 21.117 117.912C20.7319 117.665 20.1906 117.544 19.4958 117.544H17.197V117.835C17.3305 117.841 17.4632 117.857 17.5941 117.884C17.6854 117.901 17.7687 117.947 17.831 118.016C17.8888 118.093 17.9253 118.184 17.9368 118.279C17.9576 118.423 17.9669 118.568 17.9646 118.714V122.279C17.9678 122.425 17.9562 122.572 17.9302 122.716C17.9151 122.815 17.8688 122.907 17.7979 122.979C17.7193 123.048 17.6231 123.093 17.52 123.111C17.3615 123.14 17.2007 123.155 17.0396 123.156V123.449H19.8187C20.0424 123.449 20.2343 123.449 20.3957 123.437C20.5572 123.426 20.6988 123.418 20.8245 123.399C20.9342 123.384 21.0426 123.36 21.1488 123.328C21.2404 123.3 21.329 123.264 21.4134 123.219C21.6716 123.096 21.8912 122.906 22.0487 122.668C22.1978 122.445 22.277 122.182 22.2763 121.914C22.2816 121.42 22.0526 121.017 21.5934 120.698ZM18.6885 118.028C18.6855 118.01 18.6869 117.991 18.6925 117.974C18.6981 117.956 18.7078 117.941 18.7207 117.928C18.7337 117.915 18.7495 117.905 18.7669 117.9C18.7843 117.894 18.8028 117.893 18.8209 117.896H19.4138C19.8372 117.896 20.1456 117.985 20.3401 118.159C20.5347 118.333 20.6379 118.627 20.6379 119.03C20.6454 119.223 20.6097 119.415 20.5334 119.592C20.4534 119.745 20.3313 119.873 20.1813 119.959C20.1244 119.995 20.0647 120.027 20.0027 120.053C19.936 120.079 19.8668 120.098 19.7962 120.11C19.7195 120.12 19.6255 120.129 19.5183 120.135C19.4111 120.14 19.2774 120.144 19.1213 120.144H18.6912L18.6885 118.028ZM19.7473 123.115C19.3688 123.115 19.0966 123.047 18.9307 122.912C18.7679 122.78 18.6859 122.554 18.6859 122.24V120.528H19.0313C19.2364 120.528 19.4098 120.528 19.5514 120.538C19.693 120.547 19.8161 120.551 19.9193 120.563C20.0089 120.575 20.0973 120.594 20.184 120.619C20.2621 120.648 20.3401 120.677 20.4248 120.713C20.9013 120.945 21.1421 121.348 21.1421 121.926C21.1465 122.718 20.6825 123.113 19.7499 123.111L19.7473 123.115Z" fill="#1252AE"/>
<path fill-rule="evenodd" clip-rule="evenodd" d="M52.6297 29.7602H79.3865C80.5431 29.7602 81.6363 29.8234 82.6103 29.8827V25.2839H47.4604V70.3679H80.3605C80.9679 69.7621 81.8798 67.339 82.1233 65.8297H52.6297V48.9453H55.9171V44.6482H52.6297V29.7602Z" fill="#1252AE"/>
<path fill-rule="evenodd" clip-rule="evenodd" d="M87.2569 70.3651C97.8998 69.5749 99.3581 62.5583 99.3581 57.0522C99.3581 50.6979 95.2834 47.7928 91.7565 46.5825C92.4857 46.3389 97.7118 44.6453 97.7118 37.2626C97.7118 31.6959 96.0695 27.217 88.7708 25.7644V30.9676C91.4468 32.0567 92.1773 33.9966 92.1773 37.3218C92.1773 39.9254 91.812 42.2248 88.7708 43.4337C86.0949 44.5228 83.6016 44.7046 79.589 44.7046H62.2007V49.0017H79.5943C84.5809 49.0017 87.1378 49.3652 88.7761 49.8485C92.614 50.9389 93.825 53.1777 93.825 57.2932C93.825 61.8919 92.6683 64.3743 88.4731 65.4028C88.2549 67.0969 87.847 68.7613 87.2569 70.3651Z" fill="#1252AE"/>
<path fill-rule="evenodd" clip-rule="evenodd" d="M62.0787 65.2803C61.7814 63.6028 61.6387 61.9017 61.6526 60.1983V30.4224H56.359V60.8027C56.3427 62.299 56.4245 63.7947 56.6038 65.2803H62.0787Z" fill="#1252AE"/>
<path fill-rule="evenodd" clip-rule="evenodd" d="M83.0591 49.6682C85.3724 49.7894 87.3774 50.0923 88.1674 50.3333V60.2577C88.1674 63.7067 87.8048 67.3389 86.5886 70.4244C84.4579 75.6922 80.0814 78.8976 72.1131 78.8976C64.6941 78.8976 60.3162 75.9937 58.126 71.0302H64.4519C66.0929 73.0873 68.5862 74.3608 72.2958 74.3608C76.2488 74.3608 78.8639 73.2084 80.5009 71.0302C82.9942 67.7023 83.0538 63.7067 83.0538 60.1984L83.0591 49.6682Z" fill="#1252AE"/>
</svg>
