<svg width="20" height="20" viewBox="0 0 20 20" fill="none" xmlns="http://www.w3.org/2000/svg">
<path d="M16.2017 8.52523V6.17674C16.2017 5.7615 16.0368 5.36327 15.7432 5.06965C15.4496 4.77604 15.0513 4.61108 14.6361 4.61108H5.24215C4.82691 4.61108 4.42868 4.77604 4.13507 5.06965C3.84145 5.36327 3.6765 5.7615 3.6765 6.17674V8.52523C3.26126 8.52523 2.86303 8.69018 2.56941 8.9838C2.27579 9.27741 2.11084 9.67564 2.11084 10.0909V14.005H3.152L3.6765 15.5707H4.45932L4.98382 14.005H14.8944L15.4189 15.5707H16.2017L16.7262 14.005H17.7674V10.0909C17.7674 9.67564 17.6025 9.27741 17.3088 8.9838C17.0152 8.69018 16.617 8.52523 16.2017 8.52523ZM10.722 6.17674H14.6361V8.52523H10.722M5.24215 6.17674H9.15629V8.52523H5.24215M16.2017 12.4394H3.6765V10.0909H16.2017V12.4394Z" fill="#737D8C"/>
</svg>
