<svg width="18" height="18" viewBox="0 0 18 18" fill="none" xmlns="http://www.w3.org/2000/svg">
<path d="M9.00013 1.9248C11.3322 1.9248 13.2274 3.7989 13.2274 6.11685C13.2274 9.25912 9.00013 13.9021 9.00013 13.9021C9.00013 13.9021 4.77286 9.25912 4.77286 6.11685C4.77286 3.7989 6.66809 1.9248 9.00013 1.9248ZM9.00013 4.74299C8.62642 4.74299 8.26801 4.89144 8.00376 5.1557C7.7395 5.41996 7.59104 5.77836 7.59104 6.15208C7.59104 6.52579 7.7395 6.8842 8.00376 7.14846C8.26801 7.41271 8.62642 7.56117 9.00013 7.56117C9.37385 7.56117 9.73225 7.41271 9.99651 7.14846C10.2608 6.8842 10.4092 6.52579 10.4092 6.15208C10.4092 5.77836 10.2608 5.41996 9.99651 5.1557C9.73225 4.89144 9.37385 4.74299 9.00013 4.74299ZM14.6365 13.9021C14.6365 15.4591 12.1142 16.7203 9.00013 16.7203C5.88604 16.7203 3.36377 15.4591 3.36377 13.9021C3.36377 12.9932 4.22332 12.183 5.55491 11.6687L6.00582 12.3098C5.24491 12.6269 4.77286 13.0637 4.77286 13.5498C4.77286 14.5221 6.66809 15.3112 9.00013 15.3112C11.3322 15.3112 13.2274 14.5221 13.2274 13.5498C13.2274 13.0637 12.7554 12.6269 11.9945 12.3098L12.4454 11.6687C13.777 12.183 14.6365 12.9932 14.6365 13.9021Z" fill="#737D8C"/>
</svg>
