<svg width="20" height="20" viewBox="0 0 20 20" fill="none" xmlns="http://www.w3.org/2000/svg">
<path d="M17.258 11.6566V12.4395C17.258 13.9347 16.4204 15.2342 15.1835 15.8917L15.6924 17.9193H14.1267L13.7353 16.3536C13.6022 16.3536 13.477 16.3536 13.3439 16.3536H7.08125C6.94817 16.3536 6.82291 16.3536 6.68983 16.3536L6.29842 17.9193H4.73276L5.2416 15.8917C4.00473 15.2342 3.16711 13.9347 3.16711 12.4395V11.6566H2.38428V10.091H16.4752V4.61118C16.4752 4.40356 16.3927 4.20445 16.2459 4.05764C16.0991 3.91083 15.9 3.82835 15.6924 3.82835C15.3009 3.82835 15.0035 4.09451 14.9095 4.44679C15.4027 4.86951 15.6924 5.49578 15.6924 6.17684H10.9954C10.9954 5.55398 11.2428 4.95663 11.6832 4.51621C12.1237 4.07578 12.721 3.82835 13.3439 3.82835C13.3908 3.82835 13.43 3.82835 13.477 3.82835C13.7979 2.92027 14.6669 2.2627 15.6924 2.2627C16.3152 2.2627 16.9126 2.51012 17.353 2.95055C17.7934 3.39098 18.0408 3.98832 18.0408 4.61118V11.6566H17.258ZM15.6924 11.6566H4.73276V12.4395C4.73276 13.0623 4.98019 13.6597 5.42062 14.1001C5.86104 14.5405 6.45839 14.7879 7.08125 14.7879H13.3439C13.9667 14.7879 14.5641 14.5405 15.0045 14.1001C15.4449 13.6597 15.6924 13.0623 15.6924 12.4395V11.6566Z" fill="#737D8C"/>
</svg>
